<svg width="280" height="309" viewBox="0 0 280 309" fill="none" xmlns="http://www.w3.org/2000/svg">
    <path d="M132.529 0L265.058 77.1436V231.431L132.529 308.574L0 231.431V77.1436L132.529 0Z" fill="#D5E3F6"/>
    <path d="M124.31 100.87L96.0925 16.6549L80.8984 46.0099L77.522 134.075L124.31 100.87Z" fill="white" stroke="#828282" stroke-linecap="round" stroke-linejoin="round"/>
    <path d="M124.31 100.87L96.0925 16.6549L80.8984 46.0099L77.522 134.075L124.31 100.87Z" fill="white" stroke="#828282" stroke-linecap="round" stroke-linejoin="round"/>
    <path d="M96.0925 114.585L87.4102 33.4977L80.8984 46.0097L77.522 134.075L96.0925 114.585Z" fill="white" stroke="#828282" stroke-linecap="round" stroke-linejoin="round"/>
    <path d="M132.27 306.596L53.8878 262.323L70.7702 238.743L72.9407 180.514L131.064 239.946L162.417 272.189" fill="white"/>
    <path d="M132.27 306.596L53.8878 262.323L70.7702 238.743L72.9407 180.514L131.064 239.946L162.417 272.189" stroke="#828282" stroke-linecap="round" stroke-linejoin="round"/>
    <path d="M192.564 203.613L153.735 295.047L132.27 306.596L85.723 212.756L192.564 203.613Z" fill="white" stroke="#828282" stroke-linecap="round" stroke-linejoin="round"/>
    <path d="M213.304 261.842C204.863 250.774 201.969 224.787 200.281 218.291C192.563 187.492 202.934 170.89 203.175 168.724L239.351 174.739V174.499C239.351 174.739 236.94 191.582 243.451 216.125C244.416 219.494 252.134 233.449 253.34 236.818L213.304 261.842Z" fill="white" stroke="#828282" stroke-linecap="round" stroke-linejoin="round"/>
    <path d="M230.91 158.378L233.322 187.973L195.698 255.827L183.398 264.008L216.198 180.514L230.91 158.378Z" fill="white" stroke="#828282" stroke-linecap="round" stroke-linejoin="round"/>
    <path d="M243.209 89.5619L246.586 110.014L216.438 201.448L209.686 135.76L243.209 89.5619Z" fill="white" stroke="#828282" stroke-linecap="round" stroke-linejoin="round"/>
    <path d="M243.21 89.5619L243.933 98.4647L204.38 166.077L209.686 135.76L243.21 89.5619Z" fill="white" stroke="#828282" stroke-linecap="round" stroke-linejoin="round"/>
    <path opacity="0.17" d="M243.209 89.5619L246.586 110.014L218.609 204.095L209.686 135.76L243.209 89.5619Z" fill="white" stroke="#828282" stroke-linecap="round" stroke-linejoin="round"/>
    <path d="M97.5398 239.465L54.8516 191.583L78.728 98.7052L88.6162 121.323L97.5398 239.465Z" fill="white" stroke="#828282" stroke-linecap="round" stroke-linejoin="round"/>
    <path d="M121.176 246.443L97.5403 239.465L78.7285 98.7052L155.905 184.605L121.176 246.443Z" fill="white" stroke="#828282" stroke-linecap="round" stroke-linejoin="round"/>
    <path d="M270.223 162.227L24.9468 49.6198L147.705 186.53L215.476 203.613L270.223 162.227Z" fill="white" stroke="#828282" stroke-linecap="round" stroke-linejoin="round"/>
    <path d="M1.97803 168.748C4.63097 163.214 10.9573 151.4 14.0926 146.347C24.222 129.504 36.0396 114.345 50.7514 102.314C53.2304 100.249 55.6639 98.4644 58.0385 96.924C64.2863 91.9789 59.1482 99.5518 61.3193 98.902C63.4903 98.2522 96.924 129.562 96.924 129.562L93.9569 131.54C82.2473 136.49 91.7514 132.391 73.1808 148.272C62.3279 157.415 53.1631 168.724 45.4455 181.717C35.7985 198.079 29.0455 224.065 24.9455 245.48L1.97803 231.532V168.748Z" fill="white" stroke="#828282" stroke-linecap="round" stroke-linejoin="round"/>
    <path d="M220.299 138.888L215.475 203.613L155.905 184.605L113.699 89.8024L220.299 138.888Z" fill="white" stroke="#828282" stroke-linecap="round" stroke-linejoin="round"/>
    <path d="M155.182 183.161L148.67 195.192L25.9115 74.8843L24.9468 49.6198L155.182 183.161Z" fill="white" stroke="#828282" stroke-linecap="round" stroke-linejoin="round"/>
    <path d="M155.181 183.161L121.175 246.443L183.399 264.008L215.475 203.613L155.181 183.161Z" fill="white" stroke="#828282" stroke-linecap="round" stroke-linejoin="round"/>
    <path d="M210.892 212.997L262.504 172.333L270.222 162.227L215.475 203.613L210.892 212.997Z" fill="white" stroke="#828282" stroke-linecap="round" stroke-linejoin="round"/>
    <path d="M207.516 20.9868L211.858 8.4749L199.799 1.97827L189.428 21.4681L207.516 20.9868Z" fill="white" stroke="#828282" stroke-linecap="round" stroke-linejoin="round"/>
    <path d="M196.423 18.8211L201.729 5.82788L209.446 9.4371L205.346 18.8211H196.423Z" fill="white" stroke="#828282" stroke-linecap="round" stroke-linejoin="round"/>
    <path d="M203.175 20.746L165.793 24.8364L199.799 1.97803L192.804 19.3023L203.175 20.746Z" fill="white" stroke="#828282" stroke-linecap="round" stroke-linejoin="round"/>
    <path d="M242.245 41.6795L247.31 29.4081L235.492 22.1897L224.157 41.1983L242.245 41.6795Z" fill="white" stroke="#828282" stroke-linecap="round" stroke-linejoin="round"/>
    <path d="M231.151 38.7918L237.18 26.2798L244.657 30.3703L240.075 39.273L231.151 38.7918Z" fill="white" stroke="#828282" stroke-linecap="round" stroke-linejoin="round"/>
    <path d="M237.662 41.1983L200.28 43.1232L235.492 22.1897L227.533 39.0327L237.662 41.1983Z" fill="white" stroke="#828282" stroke-linecap="round" stroke-linejoin="round"/>
    <path d="M134.44 63.094C134.199 94.6145 167.481 103.998 196.664 103.277C246.105 102.074 245.381 104.48 249.723 90.0428C258.646 59.7254 230.911 18.8208 203.658 16.4147C174.476 14.0086 134.681 19.3021 134.44 63.094Z" fill="white" stroke="#828282" stroke-linecap="round" stroke-linejoin="round"/>
    <path d="M204.622 60.447L221.504 74.4026L249.481 90.0426C258.404 59.7251 230.669 18.8206 203.416 16.4144C203.657 16.655 210.41 17.8582 204.622 60.447Z" fill="white" stroke="#828282" stroke-miterlimit="10" stroke-linecap="round" stroke-linejoin="round"/>
    <path d="M224.639 28.4456C224.639 28.4456 230.91 62.3723 229.945 65.5003C219.816 92.6898 159.522 59.0037 159.522 59.0037L155.663 28.4456C155.663 28.4456 181.228 13.2869 197.869 16.4149C214.51 19.7835 224.639 28.4456 224.639 28.4456Z" fill="white" stroke="#828282" stroke-linecap="round" stroke-linejoin="round"/>
    <path d="M160.969 78.4935C160.969 78.4935 242.245 84.99 241.522 91.9678C240.798 98.9457 220.057 104.48 220.057 104.48L259.369 95.8177L253.098 66.4627L228.981 54.1913L227.292 60.9285C227.292 60.9285 186.292 59.2442 176.886 42.6418C167.239 26.28 147.222 41.4387 147.222 41.4387C147.222 41.4387 150.839 69.8313 160.969 78.4935Z" fill="white" stroke="#828282" stroke-linecap="round" stroke-linejoin="round"/>
    <path d="M227.775 20.986C244.416 35.4229 241.281 43.6039 241.281 43.6039L226.569 28.4451L179.298 22.911L156.869 32.5356L137.816 50.8223L128.169 42.6413C128.169 42.6413 168.204 10.1584 194.01 12.5645C219.816 14.73 227.775 20.986 227.775 20.986Z" fill="white" stroke="#828282" stroke-linecap="round" stroke-linejoin="round"/>
    <path d="M223.916 27.2423L228.98 54.4318" stroke="#828282" stroke-miterlimit="10" stroke-linecap="round" stroke-linejoin="round"/>
    <path d="M229.945 83.7866L257.922 96.2986C257.922 96.2986 221.745 116.029 213.304 115.307C204.863 114.585 146.981 99.4266 146.981 99.4266L144.569 90.0426C144.569 90.0426 153.975 80.418 163.14 76.087C171.822 71.5153 229.945 83.7866 229.945 83.7866Z" fill="white" stroke="#828282" stroke-linecap="round" stroke-linejoin="round"/>
    <path d="M180.264 130.466L191.358 158.137L207.275 131.669L217.646 113.623L214.028 98.9458L180.264 130.466Z" fill="white" stroke="#828282" stroke-linecap="round" stroke-linejoin="round"/>
    <path d="M214.028 98.9456L191.357 158.137L143.122 104.239L144.569 90.0428L214.028 98.9456Z" fill="white" stroke="#828282" stroke-linecap="round" stroke-linejoin="round"/>
    <path d="M218.851 61.6505L228.498 81.6215L228.981 54.1914L218.851 61.6505Z" fill="white" stroke="#828282" stroke-linecap="round" stroke-linejoin="round"/>
    <path d="M148.187 35.6641C142.64 47.2136 145.534 60.688 155.181 64.2972C164.828 67.9065 175.681 59.485 179.057 47.2136C182.193 36.386 178.093 26.0395 170.375 23.1522C162.899 20.2648 153.01 25.3177 148.187 35.6641Z" fill="white" stroke="#828282" stroke-linecap="round" stroke-linejoin="round"/>
    <path d="M166.274 58.5224L155.18 64.2971L146.98 56.8381L144.568 44.5668L156.386 48.176L166.274 58.5224Z" fill="white" stroke="#828282" stroke-linecap="round" stroke-linejoin="round"/>
    <path d="M150.598 52.7477C153.975 54.1914 157.351 54.1914 160.728 52.7477C161.21 52.5071 161.693 52.2665 162.175 52.0259C166.275 49.8604 169.892 45.5292 171.581 40.2357C171.822 39.5139 172.063 39.0327 172.063 38.3108V38.0702C173.993 30.1299 171.34 24.1146 165.793 21.9491C160.245 20.0241 152.528 24.8364 148.669 30.1299C142.881 39.2733 142.398 48.8979 150.598 52.7477Z" fill="white" stroke="#828282" stroke-linecap="round" stroke-linejoin="round"/>
    <path d="M148.668 30.6116C155.18 30.371 158.798 32.2959 160.968 35.4239C162.898 33.499 165.55 32.5366 167.721 33.499C170.133 34.4615 171.339 37.3489 171.339 40.7175C171.58 39.9956 172.062 39.2738 172.303 38.552C174.233 30.3711 171.821 24.3557 166.033 22.4307C160.245 20.5058 152.527 25.0775 148.668 30.6116Z" fill="white" stroke="#828282" stroke-linecap="round" stroke-linejoin="round"/>
    <path d="M155.421 38.5517C153.251 44.5671 154.939 50.8231 159.039 52.5074C159.521 52.748 160.004 52.748 160.486 52.748C160.486 52.748 164.104 40.9579 158.798 33.2582C157.351 34.9425 156.386 36.3862 155.421 38.5517Z" fill="white" stroke="#828282" stroke-linecap="round" stroke-linejoin="round"/>
    <path d="M159.038 33.4989C164.103 40.7174 160.967 52.0263 160.726 52.9887C161.209 52.7481 161.691 52.5075 162.173 52.2669C166.273 50.1013 169.891 45.7703 171.579 40.4767C171.82 39.7549 172.062 39.2737 172.062 38.5519V38.3112C171.82 34.702 169.891 31.3334 167.238 30.371C164.585 29.4085 161.45 31.0928 159.038 33.4989Z" fill="white" stroke="#828282" stroke-linecap="round" stroke-linejoin="round"/>
    <path d="M175.439 26.04L166.274 22.1902C166.274 22.1902 171.58 24.1152 173.268 30.3711L179.057 32.7773C179.057 32.7773 178.092 29.168 175.439 26.04Z" fill="white" stroke="#828282" stroke-linecap="round" stroke-linejoin="round"/>
    <path d="M173.268 33.4984C173.268 33.4984 173.51 34.9421 172.786 37.5889L180.263 40.2356C180.263 40.2356 180.504 38.792 180.263 36.3858L173.268 33.4984Z" fill="white" stroke="#828282" stroke-linecap="round" stroke-linejoin="round"/>
    <path d="M220.781 60.2063C220.781 60.2063 188.222 57.0783 179.54 45.5288L178.334 49.6193C178.334 49.6193 180.746 54.9128 219.093 61.65L220.781 60.2063Z" fill="white" stroke="#828282" stroke-linecap="round" stroke-linejoin="round"/>
    <path opacity="0.54" d="M259.127 23.152L278.904 45.2885C278.904 45.2885 257.439 42.4011 240.074 43.123L223.916 28.2048C223.916 28.2048 242.486 19.5428 259.127 23.152Z" fill="white" stroke="#828282" stroke-miterlimit="10" stroke-linecap="round" stroke-linejoin="round"/>
    <path d="M243.452 37.3481C243.452 37.3481 242.246 35.1826 240.558 36.145L243.452 37.3481Z" fill="white"/>
    <path d="M243.452 37.3481C243.452 37.3481 242.246 35.1826 240.558 36.145" stroke="#828282" stroke-miterlimit="10" stroke-linecap="round" stroke-linejoin="round"/>
    <path d="M243.451 37.3482C243.693 37.1076 241.281 34.942 239.351 39.2731L243.451 37.3482Z" fill="white"/>
    <path d="M243.451 37.3482C243.693 37.1076 241.281 34.942 239.351 39.2731" stroke="#828282" stroke-miterlimit="10" stroke-linecap="round" stroke-linejoin="round"/>
    <path d="M243.452 37.3486C243.452 37.3486 240.317 36.1455 240.076 41.439L243.452 37.3486Z" fill="white"/>
    <path d="M243.452 37.3486C243.452 37.3486 240.317 36.1455 240.076 41.439" stroke="#828282" stroke-miterlimit="10" stroke-linecap="round" stroke-linejoin="round"/>
    <path d="M243.211 37.5889C243.211 37.5889 240.558 37.5888 241.041 42.8823L243.211 37.5889Z" fill="white"/>
    <path d="M243.211 37.5889C243.211 37.5889 240.558 37.5888 241.041 42.8823" stroke="#828282" stroke-miterlimit="10" stroke-linecap="round" stroke-linejoin="round"/>
    <path d="M243.452 37.5889C243.452 37.5889 241.764 39.0325 242.487 41.9199L243.452 37.5889Z" fill="white"/>
    <path d="M243.452 37.5889C243.452 37.5889 241.764 39.0325 242.487 41.9199" stroke="#828282" stroke-miterlimit="10" stroke-linecap="round" stroke-linejoin="round"/>
    <path d="M246.105 45.5296L245.381 45.0483L255.993 47.2139C255.993 47.2139 254.787 50.8231 254.546 50.5825C254.546 50.3419 246.587 47.9357 246.587 47.9357L246.105 45.5296Z" fill="white" stroke="#828282" stroke-linecap="round" stroke-linejoin="round"/>
    <path d="M262.987 44.8073C262.987 44.8073 258.646 49.3789 256.957 50.1007C255.269 50.8226 254.546 50.582 254.546 50.582L255.752 47.2134L261.54 43.1229L262.987 44.8073Z" fill="white" stroke="#828282" stroke-linecap="round" stroke-linejoin="round"/>
    <path d="M241.04 39.514L239.593 40.9577V49.6199L234.287 55.154L242.246 57.5601L243.693 59.7257L247.552 57.0789L249.24 52.7479C249.24 52.7479 251.411 51.7854 251.652 50.3417L250.205 46.2512L241.04 39.514Z" fill="white" stroke="#828282" stroke-linecap="round" stroke-linejoin="round"/>
    <path d="M250.205 46.7327L251.652 50.8231C251.652 50.8231 249.723 46.9733 240.799 47.4545C240.799 47.4545 240.558 40.7173 240.317 40.7173C240.076 40.7173 241.04 39.9955 241.04 39.9955C241.04 39.9955 250.446 46.4921 250.205 46.7327Z" fill="white" stroke="#828282" stroke-linecap="round" stroke-linejoin="round"/>
    <path d="M244.176 62.1316L244.417 61.891L242.246 57.8006L234.77 55.1538L233.323 56.5975L244.176 62.1316Z" fill="white" stroke="#828282" stroke-linecap="round" stroke-linejoin="round"/>
    <path d="M234.529 54.4316C234.529 54.4316 244.417 55.6347 244.417 60.6876L244.176 61.8906C244.176 61.8906 240.076 56.1159 233.323 56.3565L234.529 54.4316Z" fill="white" stroke="#828282" stroke-linecap="round" stroke-linejoin="round"/>
    <path d="M243.934 58.5218L243.211 60.6874C243.211 60.6874 241.281 59.0031 240.799 58.5218L241.523 56.3563C241.523 56.3563 243.452 57.3188 243.934 58.5218Z" fill="white" stroke="#828282" stroke-linecap="round" stroke-linejoin="round"/>
    <path d="M262.022 40.7167V39.0324L260.575 38.3105L261.781 44.8072L264.434 45.0477L265.157 40.2354L262.022 40.7167Z" fill="white" stroke="#828282" stroke-linecap="round" stroke-linejoin="round"/>
    <path d="M240.075 41.1982L242.487 43.8449L240.798 47.2136L238.869 43.1231L240.075 41.1982Z" fill="white" stroke="#828282" stroke-linecap="round" stroke-linejoin="round"/>
    <path d="M241.039 39.5138L242.486 43.6043L239.351 44.0855L231.633 37.5889C231.633 37.5889 234.528 35.6639 234.769 35.6639L238.145 38.3107L241.039 39.5138Z" fill="white" stroke="#828282" stroke-linecap="round" stroke-linejoin="round"/>
    <path d="M231.876 37.8294L228.982 30.1298L230.188 28.2048C230.188 28.2048 235.976 36.867 235.252 38.5513L231.876 37.8294Z" fill="white" stroke="#828282" stroke-linecap="round" stroke-linejoin="round"/>
    <path d="M226.329 30.371L228.258 26.5211L230.429 28.2054L228.982 30.1303L226.329 30.371Z" fill="white" stroke="#828282" stroke-linecap="round" stroke-linejoin="round"/>
    <path d="M225.847 25.3174L228.258 26.5205L226.329 30.3703L223.917 28.686L224.158 27.9642L225.847 28.9266L223.917 27.0016L225.847 25.3174Z" fill="white" stroke="#828282" stroke-linecap="round" stroke-linejoin="round"/>
    <path d="M243.692 38.5514V42.1606L247.792 46.7323L247.31 43.8449L248.033 41.4387L250.445 40.4763L249.721 39.5138H244.898L243.692 38.5514Z" fill="white" stroke="#828282" stroke-linecap="round" stroke-linejoin="round"/>
    <path d="M242.968 35.4229L243.933 38.3103C244.415 39.2728 245.139 40.2353 246.345 39.9947C247.309 39.9947 248.756 39.7541 249.239 39.9947C250.204 40.2353 250.445 40.4759 250.445 40.4759L251.651 36.8666L251.168 35.4229V33.4981L249.721 31.8137L244.898 32.0544L242.968 35.4229Z" fill="white" stroke="#828282" stroke-linecap="round" stroke-linejoin="round"/>
    <path d="M245.138 34.7011C245.138 34.7011 245.38 33.7387 246.103 33.4981C247.068 33.2574 247.791 33.4981 247.791 33.4981C247.791 33.4981 247.791 33.4981 247.791 33.7387C247.791 33.7387 247.791 33.9793 247.55 33.9793C247.55 33.9793 246.827 33.4981 246.103 33.7387C245.621 33.9793 245.138 34.9417 245.138 34.7011Z" fill="white" stroke="#828282" stroke-linecap="round" stroke-linejoin="round"/>
    <path d="M251.164 35.4193C251.164 35.4193 251.164 34.9392 250.923 34.4592C250.683 33.9791 249.961 34.4592 249.961 34.4592C249.961 34.4592 249.961 34.4592 249.72 34.2191V33.9792C249.72 33.9792 250.442 33.4991 250.923 34.2191C251.405 34.6992 251.164 35.4193 251.164 35.4193Z" fill="white" stroke="#828282" stroke-linecap="round" stroke-linejoin="round"/>
    <path d="M249.48 38.3107C248.274 37.8295 246.827 37.3483 246.345 37.5889C246.345 37.5889 245.863 38.5513 246.827 39.0325C248.274 39.5138 249.48 38.3107 249.48 38.3107Z" fill="white" stroke="#828282" stroke-linecap="round" stroke-linejoin="round"/>
    <path d="M247.155 35.1867C247.192 34.7908 247.116 34.4597 246.983 34.4472C246.851 34.4347 246.713 34.7455 246.676 35.1414C246.638 35.5373 246.715 35.8684 246.847 35.8809C246.98 35.8934 247.117 35.5826 247.155 35.1867Z" fill="white" stroke="#828282" stroke-linecap="round" stroke-linejoin="round"/>
    <path d="M250.255 36.1554C250.388 36.1423 250.474 35.9171 250.447 35.6526C250.421 35.388 250.292 35.1843 250.159 35.1975C250.027 35.2106 249.941 35.4357 249.967 35.7003C249.993 35.9648 250.122 36.1686 250.255 36.1554Z" fill="white" stroke="#828282" stroke-linecap="round" stroke-linejoin="round"/>
    <path d="M248.274 37.1063C248.515 37.1063 249.477 36.6262 249.477 36.6262L249.718 37.5864L248.274 37.1063Z" fill="white" stroke="#828282" stroke-linecap="round" stroke-linejoin="round"/>
    <path d="M244.971 37.2024C245.002 36.1397 244.487 35.2627 243.821 35.2435C243.156 35.2243 242.591 36.0702 242.56 37.1329C242.529 38.1955 243.044 39.0726 243.71 39.0918C244.376 39.111 244.94 38.2651 244.971 37.2024Z" fill="white" stroke="#828282" stroke-linecap="round" stroke-linejoin="round"/>
    <path d="M250.928 33.0173C250.928 33.0173 249.24 30.8517 246.587 31.8142L250.928 33.0173Z" fill="white"/>
    <path d="M250.928 33.0173C250.928 33.0173 249.24 30.8517 246.587 31.8142" stroke="#828282" stroke-miterlimit="10" stroke-linecap="round" stroke-linejoin="round"/>
    <path d="M249.481 32.2956C249.481 32.2956 248.275 31.0925 246.587 31.8144L249.481 32.2956Z" fill="white"/>
    <path d="M249.481 32.2956C249.481 32.2956 248.275 31.0925 246.587 31.8144" stroke="#828282" stroke-miterlimit="10" stroke-linecap="round" stroke-linejoin="round"/>
    <path d="M246.346 32.5368C246.346 32.5368 243.452 32.0556 242.969 35.9054L246.346 32.5368Z" fill="white"/>
    <path d="M246.346 32.5368C246.346 32.5368 243.452 32.0556 242.969 35.9054" stroke="#828282" stroke-miterlimit="10" stroke-linecap="round" stroke-linejoin="round"/>
    <path d="M245.621 33.4988C245.621 33.4988 243.21 33.98 243.21 36.1456L245.621 33.4988Z" fill="white"/>
    <path d="M245.621 33.4988C245.621 33.4988 243.21 33.98 243.21 36.1456" stroke="#828282" stroke-miterlimit="10" stroke-linecap="round" stroke-linejoin="round"/>
    <path d="M247.792 31.8139C247.792 31.8139 244.657 30.8515 243.21 34.4607L247.792 31.8139Z" fill="white"/>
    <path d="M247.792 31.8139C247.792 31.8139 244.657 30.8515 243.21 34.4607" stroke="#828282" stroke-miterlimit="10" stroke-linecap="round" stroke-linejoin="round"/>
    <path opacity="0.68" d="M244.175 36.8666C244.175 36.8666 246.586 36.1448 247.551 36.1448C248.516 36.1448 248.516 35.4229 248.516 34.2198C248.516 33.9792 248.275 33.7386 248.034 33.7386C247.31 33.7386 246.104 33.7386 245.139 34.2198C243.934 35.1823 244.175 36.8666 244.175 36.8666Z" fill="white" stroke="#828282" stroke-linecap="round" stroke-linejoin="round"/>
    <path d="M242.97 35.6638L242.728 37.8293L243.211 38.3106C243.452 37.5887 244.899 36.6262 244.899 36.6262L245.14 34.2201C245.14 34.2201 243.211 35.1826 242.97 35.6638Z" fill="white" stroke="#828282" stroke-linecap="round" stroke-linejoin="round"/>
</svg>
